<svg width="190" height="59" viewBox="0 0 190 59" fill="none" xmlns="http://www.w3.org/2000/svg">
<path d="M7.29169 29.5C7.29169 29.5 11.0031 22.2083 17.5 22.2083C23.9954 22.2083 27.7084 29.5 27.7084 29.5C27.7084 29.5 23.9954 36.7916 17.5 36.7916C11.0031 36.7916 7.29169 29.5 7.29169 29.5Z" stroke="#0F172A" stroke-width="3" stroke-linecap="round" stroke-linejoin="round"/>
<path d="M17.5 30.9584C17.8868 30.9584 18.2577 30.8047 18.5312 30.5312C18.8047 30.2577 18.9584 29.8868 18.9584 29.5C18.9584 29.1132 18.8047 28.7423 18.5312 28.4688C18.2577 28.1953 17.8868 28.0417 17.5 28.0417C17.1132 28.0417 16.7423 28.1953 16.4688 28.4688C16.1953 28.7423 16.0417 29.1132 16.0417 29.5C16.0417 29.8868 16.1953 30.2577 16.4688 30.5312C16.7423 30.8047 17.1132 30.9584 17.5 30.9584Z" stroke="#0F172A" stroke-width="3" stroke-linecap="round" stroke-linejoin="round"/>
<path d="M30.625 36.7917V39.7084C30.625 40.4819 30.3177 41.2238 29.7707 41.7707C29.2237 42.3177 28.4819 42.625 27.7083 42.625H7.29167C6.51812 42.625 5.77625 42.3177 5.22927 41.7707C4.68229 41.2238 4.375 40.4819 4.375 39.7084V36.7917" stroke="#0F172A" stroke-width="3" stroke-linecap="round" stroke-linejoin="round"/>
<path d="M30.625 22.2083V19.2917C30.625 18.5181 30.3177 17.7763 29.7707 17.2293C29.2237 16.6823 28.4819 16.375 27.7083 16.375H7.29167C6.51812 16.375 5.77625 16.6823 5.22927 17.2293C4.68229 17.7763 4.375 18.5181 4.375 19.2917V22.2083" stroke="#0F172A" stroke-width="3" stroke-linecap="round" stroke-linejoin="round"/>
<path d="M45.84 41L55.92 18.6H60.016L70.128 41H65.776L57.104 20.808H58.768L50.128 41H45.84ZM50.48 35.816L51.6 32.552H63.696L64.816 35.816H50.48ZM75.5367 41V18.6H85.3287C87.7607 18.6 89.8941 19.0693 91.7288 20.008C93.5634 20.9467 94.9928 22.248 96.0168 23.912C97.0408 25.576 97.5528 27.5387 97.5528 29.8C97.5528 32.04 97.0408 34.0027 96.0168 35.688C94.9928 37.352 93.5634 38.6533 91.7288 39.592C89.8941 40.5307 87.7607 41 85.3287 41H75.5367ZM79.6967 37.48H85.1368C86.8221 37.48 88.2728 37.16 89.4888 36.52C90.7261 35.88 91.6754 34.984 92.3368 33.832C93.0194 32.68 93.3608 31.336 93.3608 29.8C93.3608 28.2427 93.0194 26.8987 92.3368 25.768C91.6754 24.616 90.7261 23.72 89.4888 23.08C88.2728 22.44 86.8221 22.12 85.1368 22.12H79.6967V37.48ZM111.478 41.32C109.729 41.32 108.054 41.0747 106.454 40.584C104.854 40.072 103.585 39.4213 102.646 38.632L104.086 35.4C104.982 36.104 106.092 36.6907 107.414 37.16C108.737 37.6293 110.092 37.864 111.478 37.864C112.652 37.864 113.601 37.736 114.326 37.48C115.052 37.224 115.585 36.8827 115.926 36.456C116.268 36.008 116.438 35.5067 116.438 34.952C116.438 34.2693 116.193 33.7253 115.702 33.32C115.212 32.8933 114.572 32.5627 113.782 32.328C113.014 32.072 112.15 31.8373 111.19 31.624C110.252 31.4107 109.302 31.1653 108.342 30.888C107.404 30.5893 106.54 30.216 105.75 29.768C104.982 29.2987 104.353 28.68 103.862 27.912C103.372 27.144 103.126 26.1627 103.126 24.968C103.126 23.752 103.446 22.6427 104.086 21.64C104.748 20.616 105.74 19.8053 107.062 19.208C108.406 18.5893 110.102 18.28 112.15 18.28C113.494 18.28 114.828 18.4507 116.15 18.792C117.473 19.1333 118.625 19.624 119.606 20.264L118.294 23.496C117.292 22.8987 116.257 22.4613 115.19 22.184C114.124 21.8853 113.1 21.736 112.118 21.736C110.966 21.736 110.028 21.8747 109.302 22.152C108.598 22.4293 108.076 22.792 107.734 23.24C107.414 23.688 107.254 24.2 107.254 24.776C107.254 25.4587 107.489 26.0133 107.958 26.44C108.449 26.8453 109.078 27.1653 109.846 27.4C110.636 27.6347 111.51 27.8693 112.47 28.104C113.43 28.3173 114.38 28.5627 115.318 28.84C116.278 29.1173 117.142 29.48 117.91 29.928C118.7 30.376 119.329 30.984 119.798 31.752C120.289 32.52 120.534 33.4907 120.534 34.664C120.534 35.8587 120.204 36.968 119.542 37.992C118.902 38.9947 117.91 39.8053 116.566 40.424C115.222 41.0213 113.526 41.32 111.478 41.32ZM127.219 41V18.6H137.715C140.403 18.6 142.451 19.1333 143.859 20.2C145.267 21.2453 145.971 22.6533 145.971 24.424C145.971 25.6187 145.694 26.6427 145.139 27.496C144.585 28.328 143.838 28.9787 142.899 29.448C141.982 29.896 140.979 30.12 139.891 30.12L140.467 28.968C141.726 28.968 142.857 29.2027 143.859 29.672C144.862 30.12 145.651 30.7813 146.227 31.656C146.825 32.5307 147.123 33.6187 147.123 34.92C147.123 36.84 146.387 38.3333 144.915 39.4C143.443 40.4667 141.257 41 138.355 41H127.219ZM131.379 37.736H138.099C139.657 37.736 140.851 37.48 141.683 36.968C142.515 36.456 142.931 35.6347 142.931 34.504C142.931 33.3947 142.515 32.584 141.683 32.072C140.851 31.5387 139.657 31.272 138.099 31.272H131.059V28.04H137.267C138.718 28.04 139.827 27.784 140.595 27.272C141.385 26.76 141.779 25.992 141.779 24.968C141.779 23.9227 141.385 23.144 140.595 22.632C139.827 22.12 138.718 21.864 137.267 21.864H131.379V37.736ZM154.123 41V18.6H158.283V41H154.123ZM166.902 41V18.6H170.326L184.374 35.848H182.678V18.6H186.806V41H183.382L169.334 23.752H171.03V41H166.902Z" fill="#0F172A"/>
</svg>
